<?xml version="1.0" encoding="utf-8"?>
<!-- Generator: Adobe Illustrator 21.1.0, SVG Export Plug-In . SVG Version: 6.00 Build 0)  -->
<svg version="1.1" id="Capa_1" xmlns="http://www.w3.org/2000/svg" xmlns:xlink="http://www.w3.org/1999/xlink" x="0px" y="0px"
	 viewBox="0 0 486.2 486.2" style="enable-background:new 0 0 486.2 486.2;" xml:space="preserve">
<style type="text/css">
	.st0{fill:#EEEEEE;}
</style>
<g>
	<g>
		<path class="st0" d="M476.6,32.1l-7.5-7.5l-3.7-3.7l-5.6-5.6l0,0l-5.6-5.6c-6.2-6.2-16.2-6.2-22.4,0l-11.2,11.2
			c-4,4-5.5,9.8-4,15.3L347.6,105c-0.5,0.5-0.9,0.9-1.3,1.3V84.5c0-0.5-0.1-0.9-0.1-1.4c11-3.8,17.6-14.9,15.7-26.4
			s-11.9-19.8-23.5-19.8H147.9c-11.6,0-21.5,8.3-23.5,19.8c-1.9,11.4,4.7,22.6,15.7,26.4c0,0.5-0.1,0.9-0.1,1.4v172.1L16.7,379.9
			C9.2,387.3,5,397.4,5,407.9c0,10.5,4.2,20.6,11.7,28l33.6,33.6c7.4,7.5,17.5,11.7,28,11.7s20.6-4.2,28-11.7l37.4-37.4l4.5,35.9
			c0,0.3,0.1,0.6,0.2,0.9c1.8,7.1,8.1,12,15.4,12c7.3,0,13.6-5,15.4-12c0.1-0.3,0.1-0.6,0.2-0.9l8.2-65.4c0-0.2,0-0.3,0-0.5
			c0-0.2,0.1-0.3,0.1-0.5v-13.5l31.7-31.7v45.2c0,0.2,0.1,0.3,0.1,0.5c0,0.2-0.1,0.3,0,0.5l8.2,65.4c0,0.3,0.1,0.6,0.2,0.9
			c1.8,7.1,8.1,12,15.4,12c7.3,0,13.6-5,15.4-12c0.1-0.3,0.1-0.6,0.2-0.9l8.2-65.4c0-0.2-0.1-0.3,0-0.5c0-0.2,0.1-0.3,0.1-0.5V309
			l31.7-31.7v124.5c0,0.2,0.1,0.3,0.1,0.5c0,0.2-0.1,0.3,0,0.5l8.2,65.4c0,0.3,0.1,0.6,0.2,0.9c1.8,7.1,8.1,12,15.4,12
			c7.3,0,13.6-5,15.4-12c0.1-0.3,0.1-0.6,0.2-0.9l8.2-65.4c0-0.2-0.1-0.3,0-0.5c0-0.2,0.1-0.3,0.1-0.5V177.4
			c10.9-13.6,22.6-26.5,35-38.8l68.9-68.9c5.4,1.6,11.3,0,15.3-4l11.2-11.2C482.7,48.3,482.7,38.3,476.6,32.1z M140,60.7
			c0-4.4,3.6-7.9,7.9-7.9h190.4c4.4,0,7.9,3.6,7.9,7.9s-3.6,7.9-7.9,7.9H147.9C143.5,68.6,140,65,140,60.7z M330.4,84.5v37
			c-5.6,5.1-10.9,9.7-15.9,13.8V84.5H330.4z M266.9,167.7V84.5h31.7v63.3C288.7,155.3,278,162,266.9,167.7z M270,195.8l20.4,20.4
			l-71.4,51L270,195.8z M251,84.5v75.6c-5.4-1-11-0.1-15.9,2.5V84.5L251,84.5z M219.3,84.5v92.8L187.6,209V84.5H219.3z M171.7,84.5
			v140.3l-15.9,15.9V84.5L171.7,84.5z M163.8,464.7l-5.8-46.8l10.6-10.6l0,0l2.8-2.8L163.8,464.7z M243.1,464.7l-6.9-55H250
			L243.1,464.7z M251,393.8h-15.9v-53.1l15.9-15.9L251,393.8L251,393.8z M308.3,245.2L162.6,390.8l-5.3,5.3l0,0l-62.2,62.2
			c-9.4,9-24.2,9-33.6,0l-33.7-33.7c-4.5-4.4-7-10.5-7-16.8c0-6.3,2.5-12.4,7-16.8l213.2-213.2c3.1-3,8.1-3,11.1,0.1l1.2,1.2
			l5.3,5.3l-79.8,111.7L67.1,407.9c-2,2-2.8,4.9-2.1,7.7c0.7,2.7,2.9,4.9,5.6,5.6c2.7,0.7,5.7,0,7.7-2.1L190,307.4l111.7-79.8
			l0.9,0.9l0,0l5.6,5.6c1.5,1.5,2.4,3.5,2.3,5.6C310.6,241.7,309.8,243.7,308.3,245.2z M322.4,464.7l-6.9-55h13.8L322.4,464.7z
			 M330.4,393.8h-15.9V261.4l4.9-4.9c2.2-2.2,4-4.8,5.2-7.7c3.7-8.9,1.7-19.1-5.2-25.9l-1.8-1.8c3.7-7.6,7.9-15,12.7-22V393.8z
			 M305.8,209.1l-28.7-28.7c23.4-13.1,45.1-29.1,64.5-47.7l12,12C334.9,164,318.9,185.7,305.8,209.1z M370,127.4
			c-1.9,1.9-3.7,3.8-5.5,5.7l-11.4-11.4c1.9-1.8,3.7-3.6,5.7-5.5l67.3-67.3l11.2,11.2L370,127.4z M454.1,54.5l-22.4-22.4l11.2-11.2
			l15,15l1.9,1.9l0,0l5.6,5.6L454.1,54.5z"/>
	</g>
</g>
</svg>
